<svg width="367" height="253" viewBox="0 0 367 253" fill="none" xmlns="http://www.w3.org/2000/svg">
<path d="M79.6147 233.181C79.5294 233.224 79.4441 233.245 79.3588 233.245C79.2734 233.245 79.1028 233.245 78.8468 233.245C78.2494 233.245 77.5454 233.138 76.7348 232.925C75.9668 232.754 75.1988 232.52 74.4308 232.221C73.7054 231.965 73.0654 231.666 72.5108 231.325C71.9988 230.984 71.6788 230.685 71.5508 230.429C71.5081 229.832 71.4868 229.213 71.4868 228.573C71.4868 227.933 71.4868 227.314 71.4868 226.717C71.4868 221.938 71.8281 216.946 72.5108 211.741C73.2361 206.536 74.4094 200.904 76.0308 194.845C76.2014 194.248 76.3721 193.501 76.5428 192.605C76.7561 191.666 76.9694 190.664 77.1828 189.597C76.1588 190.408 74.9428 191.709 73.5348 193.501C72.1268 195.25 70.6334 197.341 69.0548 199.773C67.5188 202.162 65.9614 204.808 64.3828 207.709C62.8468 210.568 61.4388 213.49 60.1588 216.477C58.8788 219.421 57.7694 222.344 56.8308 225.245C55.9348 228.146 55.3801 230.834 55.1667 233.309C53.1188 232.712 51.6894 232.114 50.8788 231.517C50.1108 230.92 49.7268 230.194 49.7268 229.341C49.7268 228.573 49.9614 227.485 50.4308 226.077C50.9001 224.669 51.5614 223.005 52.4148 221.085C53.2681 219.165 54.3134 217.032 55.5508 214.685C56.7881 212.296 58.1534 209.736 59.6468 207.005C61.3534 203.89 63.0174 200.968 64.6388 198.237C66.3028 195.506 67.9241 193.032 69.5028 190.813C71.0814 188.594 72.6174 186.674 74.1108 185.053C75.6468 183.432 77.1614 182.194 78.6548 181.341C79.2521 181.341 80.0414 181.49 81.0228 181.789C82.0468 182.088 83.0281 182.45 83.9668 182.877C84.9481 183.304 85.8014 183.752 86.5268 184.221C87.2948 184.648 87.7214 185.01 87.8068 185.309C87.2094 186.504 86.5054 188.296 85.6948 190.685C84.8841 193.074 84.0521 195.784 83.1988 198.813C82.3881 201.842 81.5988 205.064 80.8308 208.477C80.1054 211.848 79.5294 215.09 79.1028 218.205C80.0841 215.858 81.2148 213.426 82.4948 210.909C83.8174 208.349 85.2041 205.832 86.6548 203.357C88.1054 200.84 89.5774 198.408 91.0708 196.061C92.6068 193.714 94.1001 191.581 95.5508 189.661C97.0014 187.698 98.3454 185.992 99.5828 184.541C100.863 183.09 101.993 182.024 102.975 181.341C103.572 181.341 104.361 181.49 105.343 181.789C106.367 182.088 107.348 182.45 108.287 182.877C109.268 183.304 110.121 183.752 110.847 184.221C111.615 184.648 112.041 185.01 112.127 185.309C110.761 187.741 109.567 190.706 108.543 194.205C107.519 197.704 106.644 201.373 105.919 205.213C105.236 209.053 104.703 212.872 104.319 216.669C103.977 220.424 103.807 223.794 103.807 226.781C103.807 227.762 103.807 228.786 103.807 229.853C103.807 230.92 103.849 232.029 103.935 233.181C103.337 233.181 102.612 233.096 101.759 232.925C100.948 232.797 100.137 232.605 99.3268 232.349C98.5588 232.093 97.8548 231.794 97.2148 231.453C96.5748 231.154 96.1268 230.813 95.8708 230.429C95.8281 229.832 95.8068 229.213 95.8068 228.573C95.8068 227.933 95.8068 227.314 95.8068 226.717C95.8068 221.938 96.1481 216.946 96.8308 211.741C97.5561 206.536 98.7294 200.904 100.351 194.845C100.521 194.248 100.713 193.437 100.927 192.413C101.14 191.389 101.353 190.322 101.567 189.213C100.372 189.81 99.0068 190.962 97.4708 192.669C95.9774 194.333 94.4414 196.381 92.8628 198.813C91.3268 201.202 89.7908 203.869 88.2548 206.813C86.7614 209.757 85.3961 212.765 84.1588 215.837C82.9641 218.866 81.9401 221.896 81.0868 224.925C80.2761 227.912 79.7854 230.664 79.6147 233.181ZM129.085 227.037C128.274 226.354 127.719 225.501 127.421 224.477C127.165 223.453 127.037 222.578 127.037 221.853C127.037 220.957 127.143 220.189 127.357 219.549C127.186 219.549 126.802 219.89 126.205 220.573C125.607 221.256 124.946 222.066 124.221 223.005C123.538 223.944 122.855 224.861 122.173 225.757C121.49 226.653 120.978 227.314 120.637 227.741C120.082 228.338 119.549 228.808 119.037 229.149C118.567 229.49 118.183 229.682 117.885 229.725C117.202 229.682 116.477 229.533 115.709 229.277C114.983 229.064 114.279 228.744 113.597 228.317C112.957 227.89 112.381 227.378 111.869 226.781C111.399 226.184 111.079 225.501 110.909 224.733C110.909 223.538 110.93 222.557 110.973 221.789C111.058 221.021 111.207 220.189 111.421 219.293C111.805 217.672 112.359 215.837 113.085 213.789C113.853 211.741 114.727 209.736 115.709 207.773C116.69 205.768 117.778 203.912 118.973 202.205C120.21 200.456 121.511 199.09 122.877 198.109C123.261 198.109 123.709 198.152 124.221 198.237C124.733 198.28 125.245 198.386 125.757 198.557C126.311 198.728 126.823 198.941 127.293 199.197C127.805 199.41 128.231 199.709 128.573 200.093C128.189 200.52 127.207 201.949 125.629 204.381C124.093 206.813 122.365 210.312 120.445 214.877C120.231 215.346 119.975 216.029 119.677 216.925C119.378 217.821 119.079 218.76 118.781 219.741C118.482 220.722 118.226 221.682 118.013 222.621C117.842 223.56 117.757 224.306 117.757 224.861C117.757 225.202 117.799 225.458 117.885 225.629C118.013 225.8 118.119 225.928 118.205 226.013C118.845 225.757 119.655 225.053 120.637 223.901C121.618 222.749 122.983 220.978 124.733 218.589C125.159 217.992 125.65 217.309 126.205 216.541C126.802 215.773 127.399 214.962 127.997 214.109C128.594 213.213 129.149 212.296 129.661 211.357C130.215 210.418 130.663 209.48 131.005 208.541C131.175 208.029 131.389 207.432 131.645 206.749C131.943 206.024 132.285 205.277 132.669 204.509C133.095 203.741 133.565 202.973 134.077 202.205C134.631 201.394 135.271 200.648 135.997 199.965C136.551 199.965 137.149 200.029 137.789 200.157C138.429 200.285 139.026 200.456 139.581 200.669C140.178 200.84 140.69 201.053 141.117 201.309C141.543 201.522 141.863 201.757 142.077 202.013C141.309 203.89 140.455 205.746 139.517 207.581C138.578 209.416 137.703 211.229 136.893 213.021C136.082 214.77 135.399 216.52 134.845 218.269C134.29 220.018 134.013 221.725 134.013 223.389C134.013 224.285 134.077 225.074 134.205 225.757C134.375 226.397 134.546 226.952 134.717 227.421C134.887 227.848 135.037 228.21 135.165 228.509C135.335 228.808 135.421 229.064 135.421 229.277C135.421 229.32 135.378 229.384 135.293 229.469C135.25 229.512 135.207 229.533 135.165 229.533C134.866 229.533 134.482 229.469 134.013 229.341C133.543 229.213 133.01 229.021 132.413 228.765C131.858 228.552 131.282 228.296 130.685 227.997C130.13 227.698 129.597 227.378 129.085 227.037ZM165.382 202.973C165.339 203.784 165.19 204.637 164.934 205.533C164.72 206.386 164.443 207.176 164.102 207.901C163.76 208.584 163.398 209.16 163.014 209.629C162.63 210.098 162.267 210.333 161.926 210.333C161.456 210.29 161.179 209.97 161.094 209.373C161.094 209.245 161.136 209.053 161.222 208.797C161.35 208.498 161.478 208.178 161.606 207.837C161.734 207.496 161.84 207.154 161.926 206.813C162.054 206.472 162.118 206.173 162.118 205.917C162.118 205.32 161.968 204.829 161.67 204.445C161.414 204.018 161.051 203.805 160.582 203.805C158.875 203.805 157.574 204.872 156.678 207.005C155.782 209.138 155.334 212.274 155.334 216.413C155.334 216.84 155.355 217.096 155.398 217.181C156.294 217.138 157.083 217.117 157.766 217.117C158.491 217.074 159.195 217.053 159.878 217.053C159.92 217.138 159.942 217.309 159.942 217.565C159.942 217.949 159.856 218.226 159.686 218.397C158.704 218.61 157.915 218.802 157.318 218.973C156.763 219.101 156.336 219.229 156.038 219.357C155.739 219.485 155.547 219.634 155.462 219.805C155.419 219.933 155.398 220.125 155.398 220.381C155.398 220.722 155.398 221.064 155.398 221.405C155.44 221.746 155.462 222.173 155.462 222.685C155.462 226.269 154.48 229.149 152.518 231.325C150.598 233.501 147.91 234.76 144.454 235.101C143.856 235.058 143.238 234.888 142.598 234.589C141.958 234.29 141.339 233.906 140.742 233.437C140.187 232.968 139.696 232.434 139.27 231.837C138.843 231.282 138.544 230.706 138.374 230.109C138.374 228.488 138.715 226.952 139.398 225.501C140.08 224.008 140.998 222.706 142.15 221.597C143.344 220.445 144.731 219.528 146.31 218.845C147.931 218.12 149.68 217.693 151.558 217.565C151.558 216.498 151.451 215.453 151.238 214.429C151.024 213.405 150.79 212.424 150.534 211.485C150.32 210.504 150.107 209.565 149.894 208.669C149.68 207.73 149.574 206.813 149.574 205.917C149.574 204.765 149.808 203.634 150.278 202.525C150.747 201.373 151.366 200.328 152.134 199.389C152.902 198.408 153.798 197.576 154.822 196.893C155.846 196.21 156.912 195.741 158.022 195.485C158.491 195.613 159.11 195.997 159.878 196.637C160.688 197.234 161.478 197.917 162.246 198.685C163.014 199.453 163.696 200.242 164.294 201.053C164.891 201.821 165.254 202.461 165.382 202.973ZM144.262 232.157C145.286 231.73 146.246 231.112 147.142 230.301C148.08 229.49 148.891 228.573 149.574 227.549C150.256 226.525 150.79 225.437 151.174 224.285C151.6 223.133 151.814 222.002 151.814 220.893C150.96 221.021 150.022 221.426 148.998 222.109C147.974 222.749 147.014 223.538 146.118 224.477C145.222 225.373 144.475 226.312 143.878 227.293C143.28 228.274 142.982 229.128 142.982 229.853C142.982 230.792 143.408 231.56 144.262 232.157ZM165.491 224.157C165.491 223.773 165.512 223.304 165.555 222.749C165.64 222.152 165.768 221.384 165.939 220.445C166.109 219.464 166.323 218.29 166.579 216.925C166.877 215.56 167.24 213.917 167.667 211.997C167.752 211.57 167.944 210.888 168.243 209.949C168.541 209.01 168.925 208.029 169.395 207.005C169.907 205.938 170.504 204.914 171.187 203.933C171.912 202.952 172.765 202.226 173.747 201.757C174.472 201.928 175.432 202.376 176.627 203.101C177.821 203.784 178.845 204.744 179.699 205.981C178.717 207.09 177.885 208.2 177.203 209.309C176.563 210.418 175.965 211.57 175.411 212.765C174.899 213.96 174.408 215.197 173.939 216.477C173.512 217.757 173.021 219.101 172.467 220.509C171.997 221.704 171.571 222.941 171.187 224.221C170.803 225.458 170.589 226.546 170.547 227.485C170.547 228.253 170.525 228.786 170.483 229.085C170.483 229.426 170.376 229.597 170.163 229.597C169.992 229.597 169.651 229.49 169.139 229.277C168.627 229.064 168.093 228.744 167.539 228.317C167.027 227.848 166.557 227.272 166.131 226.589C165.704 225.906 165.491 225.096 165.491 224.157ZM177.715 196.381C177.715 196.125 177.779 195.741 177.907 195.229C177.693 195.016 177.501 194.696 177.331 194.269C177.203 193.842 177.139 193.458 177.139 193.117C177.139 192.733 177.181 192.221 177.267 191.581C177.395 190.898 177.544 190.173 177.715 189.405C177.885 188.637 178.099 187.848 178.355 187.037C178.611 186.184 178.867 185.416 179.123 184.733C179.635 184.733 180.253 184.882 180.979 185.181C181.747 185.437 182.515 185.8 183.283 186.269C184.051 186.696 184.755 187.186 185.395 187.741C186.035 188.253 186.525 188.744 186.867 189.213C186.397 189.682 185.779 190.344 185.011 191.197C184.243 192.008 183.496 192.882 182.771 193.821C182.045 194.717 181.384 195.57 180.787 196.381C180.189 197.192 179.805 197.768 179.635 198.109C179.123 198.024 178.675 197.81 178.291 197.469C177.907 197.085 177.715 196.722 177.715 196.381ZM180.936 217.181C180.936 214.749 181.426 212.402 182.408 210.141C183.432 207.837 184.754 205.81 186.376 204.061C188.04 202.269 189.917 200.84 192.008 199.773C194.141 198.664 196.338 198.109 198.6 198.109C200.818 198.109 202.525 198.664 203.72 199.773C204.914 200.882 205.512 202.461 205.512 204.509C205.512 205.49 205.362 206.45 205.064 207.389C204.808 208.285 204.445 209.096 203.976 209.821C203.549 210.546 203.037 211.144 202.44 211.613C201.842 212.04 201.245 212.253 200.648 212.253C200.136 212.253 199.602 212.104 199.048 211.805C198.536 211.464 198.109 211.037 197.768 210.525C200.626 207.922 202.056 205.554 202.056 203.421C202.056 202.184 201.565 201.565 200.584 201.565C199.73 201.565 198.664 201.97 197.384 202.781C196.104 203.592 194.866 204.658 193.672 205.981C191.837 208.029 190.429 210.312 189.448 212.829C188.509 215.304 188.04 217.906 188.04 220.637C188.04 224.093 188.808 226.162 190.344 226.845C190.984 226.76 191.73 226.568 192.584 226.269C193.437 225.97 194.354 225.586 195.336 225.117C196.317 224.605 197.32 224.029 198.344 223.389C199.41 222.749 200.434 222.066 201.416 221.341C201.586 221.469 201.736 221.661 201.864 221.917C201.992 222.173 202.056 222.408 202.056 222.621C201.33 223.517 200.498 224.392 199.56 225.245C198.621 226.098 197.64 226.888 196.616 227.613C195.592 228.296 194.589 228.872 193.608 229.341C192.669 229.853 191.837 230.173 191.112 230.301C189.704 230.173 188.381 229.725 187.144 228.957C185.906 228.232 184.818 227.272 183.88 226.077C182.984 224.882 182.258 223.517 181.704 221.981C181.192 220.445 180.936 218.845 180.936 217.181ZM225.813 233.309C223.765 232.712 222.335 232.114 221.525 231.517C220.757 230.92 220.373 230.173 220.373 229.277C220.373 228.594 220.565 227.634 220.949 226.397C221.333 225.16 221.887 223.709 222.613 222.045C223.381 220.338 224.277 218.461 225.301 216.413C226.367 214.365 227.562 212.168 228.885 209.821C227.775 209.778 226.773 209.757 225.877 209.757C225.023 209.714 224.319 209.693 223.765 209.693C224.021 209.053 224.746 208.498 225.941 208.029C227.135 207.56 228.714 207.154 230.677 206.813C232.341 204.04 234.111 201.394 235.989 198.877C237.909 196.36 239.829 194.056 241.749 191.965C243.669 189.832 245.589 187.976 247.509 186.397C249.429 184.776 251.263 183.496 253.013 182.557C253.055 182.258 253.077 182.002 253.077 181.789C253.119 181.576 253.141 181.426 253.141 181.341C253.738 181.341 254.527 181.49 255.509 181.789C256.533 182.088 257.514 182.45 258.453 182.877C259.434 183.304 260.287 183.752 261.013 184.221C261.781 184.648 262.207 185.01 262.293 185.309C260.885 187.784 259.498 191.496 258.133 196.445C256.767 201.352 255.637 207.24 254.741 214.109C254.527 215.816 254.335 217.757 254.165 219.933C254.037 222.109 253.973 224.541 253.973 227.229C253.973 228.168 253.973 229.128 253.973 230.109C253.973 231.09 254.015 232.114 254.101 233.181C254.015 233.224 253.93 233.245 253.845 233.245C253.759 233.245 253.589 233.245 253.333 233.245C252.735 233.245 252.031 233.138 251.221 232.925C250.453 232.754 249.685 232.52 248.917 232.221C248.191 231.965 247.551 231.666 246.997 231.325C246.485 230.984 246.165 230.685 246.037 230.429C245.994 229.874 245.973 229.32 245.973 228.765C245.973 228.253 245.973 227.698 245.973 227.101C245.973 224.456 246.058 221.768 246.229 219.037C246.442 216.306 246.783 213.49 247.253 210.589C246.655 210.546 245.866 210.504 244.885 210.461C243.903 210.376 242.794 210.312 241.557 210.269C240.362 210.226 239.061 210.184 237.653 210.141C236.287 210.056 234.943 209.992 233.621 209.949C232.597 211.869 231.637 213.789 230.741 215.709C229.845 217.586 229.077 219.485 228.437 221.405C227.711 223.453 227.114 225.501 226.645 227.549C226.218 229.597 225.941 231.517 225.813 233.309ZM250.517 194.845C250.687 194.248 250.879 193.437 251.093 192.413C251.349 191.346 251.583 190.237 251.797 189.085C250.73 189.469 249.535 190.173 248.213 191.197C246.933 192.221 245.589 193.501 244.181 195.037C242.815 196.53 241.407 198.237 239.957 200.157C238.549 202.034 237.183 204.04 235.861 206.173C239.445 205.874 243.519 205.682 248.085 205.597C248.426 203.805 248.789 202.034 249.173 200.285C249.599 198.493 250.047 196.68 250.517 194.845ZM258.067 249.629C257.47 249.458 257.129 248.818 257.043 247.709C256.873 247.154 256.745 246.493 256.659 245.725C256.617 244.957 256.595 244.082 256.595 243.101C256.595 242.205 256.745 240.968 257.043 239.389C257.342 237.853 257.747 236.104 258.259 234.141C258.814 232.178 259.475 230.066 260.243 227.805C261.011 225.501 261.865 223.176 262.803 220.829C263.955 217.885 264.958 215.346 265.811 213.213C266.665 211.037 267.369 209.16 267.923 207.581C268.521 206.002 268.99 204.701 269.331 203.677C269.715 202.653 270.014 201.778 270.227 201.053C270.398 200.541 270.654 199.922 270.995 199.197C271.337 198.472 271.721 197.746 272.147 197.021C272.617 196.253 273.086 195.549 273.555 194.909C274.025 194.226 274.451 193.714 274.835 193.373C276.329 193.586 277.737 193.97 279.059 194.525C280.382 195.08 281.193 195.613 281.491 196.125C280.894 196.68 280.211 197.554 279.443 198.749C278.675 199.901 277.929 201.181 277.203 202.589C276.478 203.954 275.817 205.362 275.219 206.813C274.622 208.264 274.174 209.544 273.875 210.653C274.302 209.928 274.857 209.138 275.539 208.285C276.222 207.432 277.267 206.258 278.675 204.765C280.254 203.144 281.726 201.906 283.091 201.053C284.499 200.157 285.715 199.709 286.739 199.709C288.361 199.709 289.683 200.157 290.707 201.053C291.774 201.949 292.307 203.101 292.307 204.509C292.307 207.581 291.795 210.632 290.771 213.661C289.747 216.648 288.275 219.357 286.355 221.789C285.63 222.728 284.777 223.624 283.795 224.477C282.814 225.33 281.79 226.098 280.723 226.781C279.657 227.421 278.611 227.933 277.587 228.317C276.563 228.701 275.646 228.893 274.835 228.893C274.067 228.893 273.385 228.744 272.787 228.445C272.233 228.104 271.849 227.698 271.635 227.229C273.299 226.248 274.921 224.882 276.499 223.133C278.078 221.384 279.529 219.378 280.851 217.117C282.217 214.813 283.39 212.338 284.371 209.693C285.395 207.048 286.163 204.36 286.675 201.629C285.054 202.482 283.582 203.421 282.259 204.445C280.979 205.426 279.699 206.728 278.419 208.349C276.883 210.226 275.667 211.741 274.771 212.893C273.875 214.045 273.129 215.026 272.531 215.837C271.977 216.648 271.507 217.416 271.123 218.141C270.782 218.824 270.398 219.677 269.971 220.701C269.374 222.066 268.67 223.88 267.859 226.141C267.091 228.36 266.281 230.856 265.427 233.629C264.617 236.402 263.785 239.346 262.931 242.461C262.121 245.618 261.331 248.754 260.563 251.869C260.094 251.784 259.689 251.442 259.347 250.845C259.006 250.461 258.75 250.184 258.579 250.013C258.451 249.842 258.281 249.714 258.067 249.629ZM289.942 249.629C289.345 249.458 289.004 248.818 288.918 247.709C288.748 247.154 288.62 246.493 288.534 245.725C288.492 244.957 288.47 244.082 288.47 243.101C288.47 242.205 288.62 240.968 288.918 239.389C289.217 237.853 289.622 236.104 290.134 234.141C290.689 232.178 291.35 230.066 292.118 227.805C292.886 225.501 293.74 223.176 294.678 220.829C295.83 217.885 296.833 215.346 297.686 213.213C298.54 211.037 299.244 209.16 299.798 207.581C300.396 206.002 300.865 204.701 301.206 203.677C301.59 202.653 301.889 201.778 302.102 201.053C302.273 200.541 302.529 199.922 302.87 199.197C303.212 198.472 303.596 197.746 304.022 197.021C304.492 196.253 304.961 195.549 305.43 194.909C305.9 194.226 306.326 193.714 306.71 193.373C308.204 193.586 309.612 193.97 310.934 194.525C312.257 195.08 313.068 195.613 313.366 196.125C312.769 196.68 312.086 197.554 311.318 198.749C310.55 199.901 309.804 201.181 309.078 202.589C308.353 203.954 307.692 205.362 307.094 206.813C306.497 208.264 306.049 209.544 305.75 210.653C306.177 209.928 306.732 209.138 307.414 208.285C308.097 207.432 309.142 206.258 310.55 204.765C312.129 203.144 313.601 201.906 314.966 201.053C316.374 200.157 317.59 199.709 318.614 199.709C320.236 199.709 321.558 200.157 322.582 201.053C323.649 201.949 324.182 203.101 324.182 204.509C324.182 207.581 323.67 210.632 322.646 213.661C321.622 216.648 320.15 219.357 318.23 221.789C317.505 222.728 316.652 223.624 315.67 224.477C314.689 225.33 313.665 226.098 312.598 226.781C311.532 227.421 310.486 227.933 309.462 228.317C308.438 228.701 307.521 228.893 306.71 228.893C305.942 228.893 305.26 228.744 304.662 228.445C304.108 228.104 303.724 227.698 303.51 227.229C305.174 226.248 306.796 224.882 308.374 223.133C309.953 221.384 311.404 219.378 312.726 217.117C314.092 214.813 315.265 212.338 316.246 209.693C317.27 207.048 318.038 204.36 318.55 201.629C316.929 202.482 315.457 203.421 314.134 204.445C312.854 205.426 311.574 206.728 310.294 208.349C308.758 210.226 307.542 211.741 306.646 212.893C305.75 214.045 305.004 215.026 304.406 215.837C303.852 216.648 303.382 217.416 302.998 218.141C302.657 218.824 302.273 219.677 301.846 220.701C301.249 222.066 300.545 223.88 299.734 226.141C298.966 228.36 298.156 230.856 297.302 233.629C296.492 236.402 295.66 239.346 294.806 242.461C293.996 245.618 293.206 248.754 292.438 251.869C291.969 251.784 291.564 251.442 291.222 250.845C290.881 250.461 290.625 250.184 290.454 250.013C290.326 249.842 290.156 249.714 289.942 249.629Z" fill="#a7f3d0"/>
<path d="M189.21 85.4835L257.51 59.6668V102.59C253.452 100.134 248.626 98.7107 243.448 98.7107C229.026 98.7107 217.333 109.759 217.333 123.388C217.333 137.017 229.026 148.066 243.448 148.066C257.871 148.066 269.563 137.017 269.563 123.388V50.8455C269.563 42.1679 269.563 34.8902 268.917 29.0917C268.826 28.2722 268.718 27.4575 268.599 26.6973C267.976 22.7359 266.876 19.0404 264.753 15.9544C263.692 14.4114 262.374 13.0208 260.733 11.8255C260.426 11.6014 260.106 11.3842 259.776 11.1741L259.709 11.1322C254.026 7.55826 247.637 7.81385 241.056 9.39861C234.691 10.9312 226.801 14.0523 217.125 17.8795L200.298 24.5346C195.763 26.3282 191.92 27.8479 188.904 29.4219C185.695 31.0966 182.931 33.0718 180.858 36.0151C178.785 38.9585 177.924 42.1305 177.529 45.5743C177.157 48.811 177.157 52.7473 177.157 57.3933V117.776C173.097 115.321 168.272 113.897 163.095 113.897C148.672 113.897 136.98 124.946 136.98 138.575C136.98 152.204 148.672 163.252 163.095 163.252C177.517 163.252 189.21 152.204 189.21 138.575V85.4835Z" fill="#a7f3d0"/>
<path d="M149.033 5.69484C149.033 2.5497 146.335 0 143.006 0C139.678 0 136.98 2.5497 136.98 5.69484V49.4382C132.921 46.9825 128.095 45.5587 122.918 45.5587C108.495 45.5587 96.8029 56.6073 96.8029 70.2364C96.8029 83.8653 108.495 94.9141 122.918 94.9141C137.341 94.9141 149.033 83.8653 149.033 70.2364V28.5084C154.646 32.3401 161.323 34.1691 167.112 34.1691C170.441 34.1691 173.139 31.6194 173.139 28.4742C173.139 25.3291 170.441 22.7794 167.112 22.7794C163.462 22.7794 158.806 21.4421 155.153 18.5908C151.672 15.8743 149.033 11.753 149.033 5.69484Z" fill="#a7f3d0"/>
</svg>
